<svg width="134" height="134" viewBox="0 0 134 134" fill="none" xmlns="http://www.w3.org/2000/svg">
<path d="M67.0002 0.333328C30.2002 0.333328 0.333496 30.2 0.333496 67C0.333496 103.8 30.2002 133.667 67.0002 133.667C103.8 133.667 133.667 103.8 133.667 67C133.667 30.2 103.8 0.333328 67.0002 0.333328ZM67.0002 73.6667C63.3335 73.6667 60.3335 70.6667 60.3335 67V40.3333C60.3335 36.6667 63.3335 33.6667 67.0002 33.6667C70.6668 33.6667 73.6668 36.6667 73.6668 40.3333V67C73.6668 70.6667 70.6668 73.6667 67.0002 73.6667ZM73.6668 100.333H60.3335V87H73.6668V100.333Z" fill="#C00F0C"/>
</svg>
